<svg
   xmlns="http://www.w3.org/2000/svg"
   width="24" height="24"
   viewBox="0 0 525 525">
   <path
     d="M 203 0 C 90 0 0 92 0 202 L 0 322 C 0 435 92 525 202 525 L 322 525 C 435 525 525 434 525 323 L 525 203 C 525 90 434 0 323 0 L 203 0 z M 258.73438 111.40039 C 278.66413 111.22129 298.74286 114.9573 317.78906 122.77539 C 365.47414 142.34918 399.78553 184.67839 409.36719 234.875 C 427.23683 252.3516 440.19217 270.56505 445.87305 289.04492 C 449.75429 301.67059 450.03219 314.70014 445.32617 326.57227 C 440.27757 340.79389 429.05714 351.65112 414.72266 358.81836 C 401.23242 365.56347 384.838 369.40851 366.41797 370.74219 C 338.31173 398.3386 300.47605 413.84861 261.00977 413.95117 L 261.00977 414 L 261 414 L 260 414 L 260 413.99805 C 259.985 413.99805 259.97018 414.00007 259.95508 414 L 259.95508 413.94922 C 180.33822 413.46995 114.5796 351.43464 109.22461 272.3125 C 96.383853 258.97174 86.75854 245.2044 81.203125 231.18359 C 75.27395 216.21948 74.144317 200.59573 79.664062 186.42773 C 85.308403 171.43885 97.820493 160.56925 113.49219 153.71289 C 128.5522 147.12413 146.80757 143.80708 167.17969 143.08789 C 193.83469 122.50544 226.0823 111.69381 258.73438 111.40039 z M 258.90234 131.38867 C 231.91235 131.62806 205.25151 140.1583 182.76953 156.41016 L 177.33594 160.73633 C 177.33294 160.73933 177.33112 160.74214 177.32812 160.74414 C 161.69851 173.54778 149.39619 189.84375 141.03125 208.19531 C 149.47883 227.23854 181.58923 254.80851 245.8418 282.76562 C 245.8515 282.76932 245.86109 282.77334 245.87109 282.77734 C 273.14007 293.97063 302.95619 302.48389 328.9043 305.83203 C 334.98095 306.61612 340.81903 307.07018 346.34961 307.22852 C 346.69268 307.23662 347.04407 307.25377 347.38477 307.25977 C 347.58798 307.26477 347.784 307.26162 347.98633 307.26562 C 361.22341 307.43929 372.60887 305.84553 381.0293 302.77539 C 383.03849 302.00498 384.87601 301.15198 386.47852 300.19727 C 386.88049 298.82597 387.2545 297.44764 387.61328 296.06641 C 389.48099 288.01809 390.91081 280.1037 391.57617 272.34375 C 391.58977 272.16407 391.60429 271.98442 391.61719 271.80469 C 391.67024 271.15223 391.70214 270.50378 391.74414 269.85352 C 391.88338 267.41035 391.95308 264.96305 391.95508 262.51367 L 391.13867 248.63672 L 390.39258 243.11523 L 389.69531 238.47266 C 381.33484 194.92533 351.58403 158.2674 310.19336 141.27734 C 293.64228 134.48345 276.20586 131.2352 258.90234 131.38867 z M 143.72461 165.5957 C 135.3029 167.12893 127.7984 169.28498 121.50781 172.03711 C 109.20138 177.42117 101.73028 184.53305 98.363281 193.51172 L 98.337891 193.57812 L 98.3125 193.64453 C 94.863882 202.45767 95.236 212.30563 99.796875 223.81641 C 104.34568 235.29671 113.22927 248.06014 125.97656 260.82812 C 126.94116 261.73181 127.90873 262.63231 128.88281 263.52344 C 129.85906 264.41736 130.84123 265.3046 131.82812 266.18555 C 131.84633 266.20175 131.86461 266.21807 131.88281 266.23438 C 133.63298 267.79703 135.40436 269.329 137.18359 270.85156 C 138.06097 271.59968 138.94291 272.34201 139.82812 273.08008 C 140.45566 273.60593 141.08776 274.12558 141.71875 274.64648 C 169.602 297.52651 201.26921 315.45385 235.35156 327.57812 L 235.46484 327.61914 L 235.57617 327.66211 C 265.04889 338.94953 294.0993 346.14664 320.41992 349.35352 C 334.03755 350.74272 347.79433 351.30599 361.62109 351.00391 C 379.54986 350.045 394.7413 346.44967 405.77734 340.93164 C 416.84372 335.39845 423.55188 328.34791 426.55469 319.71484 L 426.63086 319.49805 L 426.71484 319.28516 C 429.5462 312.20667 429.63477 304.285 426.75586 294.91992 C 424.22034 286.67191 419.03298 277.50233 411.89062 268.02734 C 411.47607 280.2296 409.60158 292.35589 406.29297 304.15039 C 405.76955 306.30025 405.23063 308.44422 404.66211 310.57617 L 401.36328 314.10742 L 396.20898 318 C 388.16268 322.49776 378.84285 325.18888 368.60547 326.49805 C 368.59817 326.49905 368.59098 326.50099 368.58398 326.50195 C 368.57808 326.50295 368.57241 326.50316 368.56641 326.50391 C 368.11632 326.56135 367.65672 326.60415 367.20312 326.65625 C 361.45351 327.33738 355.41925 327.57932 349.1582 327.45508 C 348.75121 327.44798 348.34045 327.43393 347.93164 327.42383 C 346.91907 327.39631 345.90464 327.36611 344.88086 327.32031 C 343.67653 327.27023 342.46257 327.20426 341.24414 327.13086 C 341.19391 327.12786 341.14405 327.12409 341.09375 327.12109 C 336.7478 326.85593 332.32591 326.46343 327.82617 325.93164 C 299.14511 322.54207 267.46642 313.56413 238.20117 301.25 L 238.16211 301.23438 L 238.125 301.21875 C 238.123 301.21775 238.12114 301.2176 238.11914 301.2168 L 238.08789 301.20312 C 238.08049 301.20012 238.07341 301.19636 238.06641 301.19336 L 238.01367 301.16992 C 167.9293 271.69883 130.52098 241.74558 119.5918 211.38672 L 118.25391 207.67578 L 119.8125 204.05078 C 125.8298 190.05413 133.92162 177.1151 143.72461 165.5957 z M 132.54688 292.95312 C 146.47501 351.0989 198.57391 393.81832 260.52539 393.97852 C 287.31595 393.99824 313.21354 385.78613 334.94141 370.80664 C 326.94887 370.31402 318.72062 369.45241 310.30469 368.2207 C 250.80738 360.76268 194.12992 338.29755 145.62891 302.87891 C 145.20718 302.57515 144.78752 302.26865 144.36719 301.96289 C 144.01613 301.70414 143.66269 301.44956 143.3125 301.18945 C 139.67051 298.51829 136.08086 295.77332 132.54688 292.95312 z "
   />
</svg>
